<svg xmlns="http://www.w3.org/2000/svg" viewBox="0 0 24 24"><defs><linearGradient id="a" x1="0" y1="0" x2="1" y2="1"><stop stop-color="#7BB5FF"/><stop offset="1" stop-color="#405FD2"/></linearGradient><linearGradient id="b" x1="0" y1="0" x2="0" y2="1"><stop stop-color="#B8D6FF"/><stop offset="1" stop-color="#6587E8"/></linearGradient><filter id="s"><feDropShadow dx="0" dy="1.2" stdDeviation="1.1" flood-opacity=".35"/></filter></defs><path d="M3 6.2c0-1 .8-1.7 1.8-1.7h4l1.6 1.8H19c1.1 0 2 .9 2 2v7.5H3V6.2z" fill="url(#a)"/><path d="M5.2 8h13.6v6H5.2z" rx="1" fill="#EAF2FF" opacity=".86"/><path d="M3.2 11.1c.1-.8.8-1.4 1.6-1.5l15-1.2c.9-.1 1.6.7 1.4 1.6l-1.4 7.1c-.2 1-1.1 1.7-2.1 1.7H5.1c-1.3 0-2.3-1.1-2.1-2.4l.2-5.3z" fill="url(#b)" filter="url(#s)"/><path d="M5.2 11.1l13.6-1" stroke="#E5EEFF" stroke-width=".8" stroke-linecap="round" opacity=".75"/></svg>