<svg xmlns="http://www.w3.org/2000/svg" viewBox="0 0 24 24"><defs><linearGradient id="b" x1="0" y1="0" x2="1" y2="1"><stop stop-color="#64D89A"/><stop offset="1" stop-color="#27985E"/></linearGradient><filter id="s"><feDropShadow dx="0" dy="1" stdDeviation="1.05" flood-opacity=".3"/></filter></defs><path d="M3 6.3c0-1 .8-1.8 1.8-1.8h4l1.6 1.8H19c1.1 0 2 .9 2 2v8.8c0 1.3-1.1 2.4-2.4 2.4H5.4C4.1 19.5 3 18.4 3 17V6.3z" fill="url(#b)" filter="url(#s)"/><path d="M5.1 8h13.8v5.8H5.1z" fill="#F5F8FF" opacity=".78"/><path d="M3.2 11c.1-.8.8-1.4 1.6-1.5l15-1.1c.9-.1 1.6.7 1.4 1.6l-1.4 7.1c-.2 1-1.1 1.7-2.1 1.7H5.1c-1.3 0-2.3-1.1-2.1-2.4L3.2 11z" fill="url(#b)"/><g><ellipse cx="12" cy="10" rx="4" ry="1.7" fill="none" stroke="#fff" stroke-width="1.15"/><path d="M8 10v5c0 .9 1.8 1.7 4 1.7s4-.8 4-1.7v-5M8 12.5c0 .9 1.8 1.7 4 1.7s4-.8 4-1.7" fill="none" stroke="#fff" stroke-width="1.15"/></g></svg>