<svg xmlns="http://www.w3.org/2000/svg" viewBox="0 0 24 24"><defs><linearGradient id="b" x1="0" y1="0" x2="1" y2="1"><stop stop-color="#38D6C7"/><stop offset="1" stop-color="#168A83"/></linearGradient><filter id="s"><feDropShadow dx="0" dy="1" stdDeviation="1.05" flood-opacity=".3"/></filter></defs><path d="M3 6.3c0-1 .8-1.8 1.8-1.8h4l1.6 1.8H19c1.1 0 2 .9 2 2v8.8c0 1.3-1.1 2.4-2.4 2.4H5.4C4.1 19.5 3 18.4 3 17V6.3z" fill="url(#b)" filter="url(#s)"/><path d="M3.2 9.4h17.6v7.8c0 1.2-1 2.2-2.2 2.2H5.4c-1.2 0-2.2-1-2.2-2.2V9.4z" fill="url(#b)"/><g><path d="M8.5 12h7M10 9.5L8 12l2 2.5M14 9.5l2 2.5-2 2.5" fill="none" stroke="#fff" stroke-width="1.2" stroke-linecap="round" stroke-linejoin="round"/></g></svg>