<svg xmlns="http://www.w3.org/2000/svg" viewBox="0 0 24 24"><defs><linearGradient id="g" x1="0" y1="0" x2="1" y2="1"><stop stop-color="#C084FC"/><stop offset="1" stop-color="#7E22CE"/></linearGradient><filter id="s"><feDropShadow dx="0" dy="1.2" stdDeviation="1" flood-opacity=".32"/></filter></defs><path d="M3 6.2c0-1 .8-1.7 1.8-1.7h4l1.6 1.8H19c1.1 0 2 .9 2 2v8.8c0 1.3-1.1 2.4-2.4 2.4H5.4C4.1 19.5 3 18.4 3 17V6.2z" fill="url(#g)" filter="url(#s)"/><path d="M3.2 9.4h17.6v7.8c0 1.2-1 2.2-2.2 2.2H5.4c-1.2 0-2.2-1-2.2-2.2V9.4z" fill="url(#g)"/><g stroke="#fff" fill="none" stroke-width="1.25" stroke-linecap="round" stroke-linejoin="round"><path d="M12 7.2l4 1.5v3.5c0 2.4-1.6 4.2-4 5.4-2.4-1.2-4-3-4-5.4V8.7l4-1.5z"/><path d="M10.2 12l1.2 1.2 2.4-2.5"/></g></svg>