<svg xmlns="http://www.w3.org/2000/svg" viewBox="0 0 24 24"><defs><linearGradient id="g" x1="0" y1="0" x2="1" y2="1"><stop stop-color="#60A5FA"/><stop offset="1" stop-color="#EAB308"/></linearGradient><filter id="s"><feDropShadow dx="0" dy="1.2" stdDeviation="1.05" flood-opacity=".34"/></filter></defs><rect x="3" y="3" width="18" height="18" rx="5" fill="url(#g)" filter="url(#s)"/><path d="M5.2 7.3c3.5-2.2 10-2.8 13.7-.3" stroke="#fff" stroke-opacity=".22" stroke-width="1.15" stroke-linecap="round"/><g stroke="#fff" fill="none" stroke-width="1.35" stroke-linecap="round" stroke-linejoin="round"><path d="M8.5 9.5c0-1.6 1.1-2.5 2.7-2.5h2.1c1.3 0 2.2.8 2.2 2v2.2h-4.1c-1.7 0-2.9.9-2.9 2.5v1M15.5 14.5c0 1.6-1.1 2.5-2.7 2.5h-2.1c-1.3 0-2.2-.8-2.2-2v-2.2h4.1c1.7 0 2.9-.9 2.9-2.5v-1"/><circle cx="12.2" cy="8.6" r=".55" fill="#fff" stroke="none"/><circle cx="11.8" cy="15.4" r=".55" fill="#fff" stroke="none"/></g></svg>